<svg xmlns="http://www.w3.org/2000/svg" width="24" height="24" fill="none" viewBox="0 0 24 24"><path fill="#000" d="M20.049 2H3.95A1.95 1.95 0 0 0 2 3.951V20.05A1.95 1.95 0 0 0 3.951 22H20.05A1.95 1.95 0 0 0 22 20.049V3.95A1.95 1.95 0 0 0 20.049 2m-7.317 14.634a.49.49 0 0 1-.488.488H7.366a.49.49 0 0 1-.488-.488v-.976a.49.49 0 0 1 .488-.487h4.878a.487.487 0 0 1 .488.488zm4.878-4.39a.487.487 0 0 1-.488.488H7.366a.49.49 0 0 1-.488-.488v-.976a.49.49 0 0 1 .488-.488h9.756a.49.49 0 0 1 .488.488zm0-4.39a.49.49 0 0 1-.488.487H7.366a.49.49 0 0 1-.488-.487v-.976a.49.49 0 0 1 .488-.488h9.756a.49.49 0 0 1 .488.488z"/></svg>