<svg xmlns="http://www.w3.org/2000/svg" width="20" height="20" fill="none" viewBox="0 0 20 20"><path fill="currentColor" d="M18.049 0H1.95A1.95 1.95 0 0 0 0 1.951V18.05A1.95 1.95 0 0 0 1.951 20H18.05A1.95 1.95 0 0 0 20 18.049V1.95A1.95 1.95 0 0 0 18.049 0m-7.317 14.634a.49.49 0 0 1-.488.488H5.366a.49.49 0 0 1-.488-.488v-.976a.49.49 0 0 1 .488-.487h4.878a.487.487 0 0 1 .488.488zm4.878-4.39a.487.487 0 0 1-.488.488H5.366a.49.49 0 0 1-.488-.488v-.976a.49.49 0 0 1 .488-.488h9.756a.49.49 0 0 1 .488.488zm0-4.39a.49.49 0 0 1-.488.487H5.366a.49.49 0 0 1-.488-.487v-.976a.49.49 0 0 1 .488-.488h9.756a.49.49 0 0 1 .488.488z"/></svg>
